<?xml version="1.0" encoding="UTF-8" standalone="no"?>
<!-- Created with Inkscape (http://www.inkscape.org/) -->

<svg
   width="500"
   height="500"
   viewBox="0 0 500 500"
   version="1.1"
   id="svg1"
   xml:space="preserve"
   xmlns="http://www.w3.org/2000/svg"
   xmlns:svg="http://www.w3.org/2000/svg"><defs
     id="defs1" /><g
     id="layer3"><g
       id="g49"
       style="display:none"><path
         id="path47"
         style="display:inline;opacity:1;fill:#05183c;fill-opacity:1;stroke:none;stroke-width:0.903989"
         d="m 165.35605,254.45438 c 11.99236,54.98608 87.47912,118.10918 91.96516,121.92995 4.4636,-3.84577 80.89512,-69.16851 92.98735,-121.92995 1.47405,-10.84304 3.1266,-19.94135 1.65946,-30.78439 -4.38195,10.25706 -13.99219,27.30845 -54.33063,40.78439 0.003,0.19729 0.005,0.3946 0.005,0.59191 -7.27293,23.30791 -26.93414,29.51177 -39.86298,29.48886 -15.42917,0.0808 -31.50996,-5.60038 -39.86132,-29.48886 1.7e-4,-0.19731 0.002,-0.39462 0.005,-0.59191 -20.95482,-3.99599 -45.9491,-9.20393 -55.46816,-31.58488 0.30251,9.0291 0.94829,11.97808 2.90112,21.58488 z" /><path
         id="path48"
         style="display:inline;opacity:1;fill:#005ce9;fill-opacity:1;stroke:none;stroke-width:0.839228;stroke-opacity:1"
         d="m 247.10294,131.25465 c -13.08281,-0.22806 -22.97099,4.24695 -22.97099,4.24696 0,0 32.62808,7.22268 3.03124,33.00455 -17.78221,15.49013 -16.19684,26.67404 -16.19684,26.67404 0,0 -28.98211,-6.56859 -8.15717,-31.56951 -17.10358,0.0344 -85.23317,75.82631 14.88618,91.87942 1.07687,0.17267 0.56712,0.0953 0.56712,0.0953 2.62032,-19.63922 19.07285,-36.2786 39.06833,-36.27895 19.99612,-4.8e-4 37.34685,15.74185 39.96725,35.3817 0,0 0.16329,1.01583 0.26272,1.55513 95.88921,-33.15559 32.57475,-90.39128 16.89923,-92.14869 0,0 8.33586,26.63344 -24.40101,27.42731 0,0 13.26128,-31.35983 -17.40364,-52.79432 -8.7022,-5.50745 -17.70275,-7.33608 -25.55242,-7.47292 z" /><path
         id="path49"
         style="display:inline;opacity:1;fill:#05183c;fill-opacity:1;stroke:none;stroke-width:0.677905"
         d="m 245.34972,247.83773 -16.39506,0.0257 c -1.90867,3.52138 -3.00711,7.67022 -3.00717,12.44651 -5.7e-4,15.35755 14.25069,27.8073 31.83187,27.80745 17.5817,5.1e-4 31.83426,-12.44943 31.83369,-27.80745 -5e-5,-4.77629 -1.09869,-8.92514 -3.00717,-12.44651 l -16.49805,-0.0257 c 15.08571,34.6402 -39.55447,34.92341 -24.75776,6e-5 z" /></g><path
       style="baseline-shift:baseline;display:none;overflow:visible;opacity:1;vector-effect:none;fill:#ffffff;fill-opacity:1;stroke:none;stroke-width:0.912599;stroke-opacity:1;enable-background:accumulate;stop-color:#000000;stop-opacity:1"
       d="m 257.87865,111.84482 c -54.26503,0 -98.3718,35.71567 -98.3718,89.9807 0,54.26503 44.74122,70.29647 99.00625,70.29647 54.26504,0 97.73557,-16.03144 97.73557,-70.29647 0,-54.26503 -44.10498,-89.9807 -98.37002,-89.9807 z m 0,10.74265 c 48.45903,0 87.62737,30.77903 87.62737,79.23805 0,48.45902 -38.53389,59.55383 -86.99292,59.55383 -48.45902,0 -88.26359,-11.09481 -88.2636,-59.55383 0,-48.45902 39.17013,-79.23805 87.62915,-79.23805 z"
       id="ellipse47" /><g
       id="g5"
       transform="matrix(1.0427166,0,0,0.9355583,-13.132505,12.411297)"
       style="display:none"><g
         id="path7"
         style="opacity:0.5"><path
           style="baseline-shift:baseline;display:inline;overflow:visible;vector-effect:none;fill:#286ef0;enable-background:accumulate;stop-color:#000000;stop-opacity:1"
           d="m 247.89942,107.78 c -14.60029,-0.28632 -25.63598,5.33275 -25.63598,5.33275 0,0 36.41222,9.06819 3.38243,41.43625 -19.84478,19.44719 -18.07586,33.487 -18.07586,33.487 0,0 -32.34279,-8.24709 -9.10235,-39.63469 -7.38001,2.18829 -49.72879,30.48732 -43.21655,101.32441 6.53832,71.12076 98.80539,157.92233 104.05192,162.94981 5.28312,-5.12132 100.90858,-97.06954 105.39979,-164.94146 4.54072,-68.62011 -36.08494,-95.23647 -41.63441,-98.72481 0,0 9.30289,33.43713 -27.23115,34.4338 0,0 14.79898,-39.36967 -19.42278,-66.27975 -9.71157,-6.91439 -19.75489,-9.21151 -28.51506,-9.38331 z"
           id="path1" /><path
           style="baseline-shift:baseline;display:inline;overflow:visible;vector-effect:none;enable-background:accumulate;stop-color:#000000;stop-opacity:1"
           d="m 247.91016,107.24414 c -14.74278,-0.28911 -25.88868,5.39258 -25.88868,5.39258 l -1.27734,0.64844 1.39063,0.34765 c 0,0 8.96867,2.27791 13.78515,8.39063 2.40824,3.05636 3.807,7.02262 2.60938,12.27734 -1.19763,5.25472 -5.04439,11.81636 -13.25782,19.86524 -9.97403,9.7742 -14.54425,18.22158 -16.61132,24.24609 -1.734,5.05376 -1.66554,7.89465 -1.60938,8.85742 -0.99557,-0.27836 -7.65835,-2.22006 -12.3418,-7.63086 -2.52007,-2.91145 -4.31951,-6.73243 -4.08984,-11.7793 0.22967,-5.04686 2.51117,-11.35042 8.2793,-19.14062 l 0.95117,-1.28516 -1.5332,0.45508 c -2.01263,0.59678 -6.02784,2.79497 -10.97266,6.89453 -4.94482,4.09957 -10.76153,10.09337 -16.14063,18.24219 -10.75818,16.29764 -19.75076,41.2197 -16.48437,76.75 3.28835,35.76909 28.05554,75.28693 52.62305,106.54102 24.56751,31.25408 48.98917,54.25213 51.59179,56.74609 l 0.3711,0.35547 0.37109,-0.35742 c 2.63221,-2.55159 27.89029,-26.84909 53.04492,-58.99414 25.15464,-32.14505 50.25456,-72.12717 52.51563,-106.29688 4.5552,-68.839 -36.29124,-95.69808 -41.88281,-99.21289 l -1.17188,-0.73633 0.37109,1.33203 c 0,0 2.27951,8.25091 0.084,16.5625 -1.09776,4.1558 -3.29742,8.31028 -7.45703,11.50391 -4.03857,3.10069 -10.0044,5.27491 -18.62891,5.62695 0.3897,-1.08545 3.49171,-9.94524 2.94336,-22.47461 -0.58284,-13.31742 -5.50805,-30.07233 -22.74805,-43.6289 l -0.0117,-0.008 -0.01,-0.008 c -9.80794,-6.983 -19.96882,-9.30894 -28.81445,-9.48242 z m -0.0215,1.07031 c 8.6729,0.17009 18.59566,2.43881 28.20899,9.28125 0.002,0.001 0.004,0.002 0.006,0.004 16.96511,13.35057 21.74743,29.7287 22.32031,42.81836 0.5731,13.09493 -3.08789,22.83594 -3.08789,22.83594 l -0.2793,0.74609 0.79492,-0.0215 c 9.21565,-0.25141 15.60723,-2.55597 19.97852,-5.91211 4.37129,-3.35615 6.69657,-7.75006 7.83984,-12.07813 2.00891,-7.60512 0.54803,-14.13277 0.13281,-15.83203 7.62948,4.94987 44.73065,31.60165 40.36719,97.54297 -2.23014,33.70221 -27.18934,73.62966 -52.29101,105.70703 -24.84466,31.74892 -49.50171,55.52665 -52.58008,58.50781 -3.07156,-2.93578 -26.86671,-25.409 -51.11719,-56.25976 -24.51224,-31.18377 -49.14846,-70.62685 -52.39844,-105.97852 -3.24584,-35.30679 5.67935,-59.95232 16.3125,-76.06055 5.31658,-8.05411 11.06395,-13.97219 15.93164,-18.00781 3.86802,-3.20682 6.85372,-4.91836 8.90821,-5.86328 -4.95973,7.13454 -7.16011,13.13157 -7.38477,18.06836 -0.24243,5.32723 1.68709,9.45357 4.34766,12.52734 5.32114,6.14754 13.53906,8.21485 13.53906,8.21485 l 0.76172,0.19336 -0.0977,-0.7793 c 0,0 -0.43935,-3.35179 1.57031,-9.20898 2.00967,-5.8572 6.47692,-14.15515 16.34766,-23.82813 8.30147,-8.13515 12.28997,-14.84349 13.55469,-20.39258 1.26471,-5.54908 -0.24641,-9.92104 -2.8125,-13.17773 -4.50714,-5.72013 -11.28593,-7.7865 -13.08789,-8.29492 2.65869,-1.20467 11.94087,-4.99266 24.21484,-4.75196 z"
           id="path2" /></g><g
         id="path8"
         style="opacity:0.5"><path
           style="baseline-shift:baseline;display:none;overflow:visible;vector-effect:none;fill:#120d4b;enable-background:accumulate;stop-color:#000000;stop-opacity:1"
           d="m 253.82345,194.41528 c 0,0 -44.34572,28.40044 -44.34572,63.27883 0,34.8784 27.90194,47.8332 53.31335,47.33494 25.41141,-0.49826 51.04621,-18.94169 48.82954,-41.85328 -2.07988,-21.49767 -18.43418,-28.89858 -18.43418,-28.89858 -3.48784,28.40099 -21.26099,25.18719 -28.90076,20.42771 -23.16206,-14.42968 -10.46223,-60.28962 -10.46223,-60.28962 z"
           id="path3" /><path
           style="baseline-shift:baseline;display:none;overflow:visible;vector-effect:none;enable-background:accumulate;stop-color:#000000;stop-opacity:1"
           d="m 254.74609,193.16602 -1.22265,0.78125 c 0,0 -11.13612,7.13208 -22.27149,18.64257 -11.13536,11.5105 -22.33008,27.42897 -22.33008,45.10352 0,17.58728 7.07166,29.74962 17.35157,37.38086 10.2799,7.63123 23.72529,10.76082 36.52929,10.50976 12.83632,-0.25169 25.70073,-5.02281 35.11329,-12.64453 9.41255,-7.62171 15.38728,-18.14216 14.25781,-29.8164 -2.10558,-21.76325 -18.75781,-29.35157 -18.75781,-29.35157 l -0.68946,-0.3125 -0.0918,0.75 c -1.72971,14.08472 -6.92623,20.1274 -12.53321,22.19532 -5.60697,2.06792 -11.81802,0.13728 -15.52148,-2.16993 -11.31827,-7.05114 -13.93423,-21.88731 -13.65625,-35.07421 0.27797,-13.18691 3.43555,-24.59571 3.43554,-24.59571 z m -1.77343,2.54492 c -0.50814,1.93823 -2.90412,11.37226 -3.15821,23.42578 -0.28142,13.35048 2.33394,28.66052 14.17774,36.03906 3.93631,2.45227 10.43068,4.50704 16.49218,2.27149 5.93309,-2.1882 11.21594,-8.61813 13.0879,-22.31055 1.72293,0.84404 15.56627,8.14512 17.49609,28.0918 1.0872,11.23734 -4.64803,21.39519 -13.85156,28.84765 -9.20353,7.45246 -21.86241,12.15187 -34.4375,12.39844 -12.60741,0.2472 -25.81984,-2.85177 -35.84375,-10.29297 -10.02392,-7.4412 -16.90235,-19.19716 -16.90235,-36.48828 0,-17.20384 10.97814,-32.92271 22.01563,-44.33203 10.11686,-10.45768 19.30678,-16.58689 20.92383,-17.65039 z"
           id="path4" /></g></g><g
       id="path12"
       style="display:none;opacity:0.5"><path
         style="baseline-shift:baseline;display:inline;overflow:visible;vector-effect:none;fill:#286ef0;enable-background:accumulate;stop-color:#000000;stop-opacity:1"
         d="m 257.7793,209.57617 a 46.385204,46.385204 0 0 0 -46.38477,46.38477 46.385204,46.385204 0 0 0 46.38477,46.38672 46.385204,46.385204 0 0 0 46.38672,-46.38672 46.385204,46.385204 0 0 0 -46.38672,-46.38477 z"
         id="path6" /><path
         style="baseline-shift:baseline;display:inline;overflow:visible;vector-effect:none;enable-background:accumulate;stop-color:#000000;stop-opacity:1"
         d="m 257.7793,209.04687 c -25.9031,2.5e-4 -46.91382,21.01097 -46.91407,46.91407 -8.4e-4,25.90386 21.0102,46.91577 46.91407,46.91601 25.90463,8.5e-4 46.91686,-21.01138 46.91601,-46.91601 -2.4e-4,-25.90387 -21.01215,-46.91491 -46.91601,-46.91407 z m 0,1.0586 c 25.33266,-8.3e-4 45.85718,20.5228 45.85742,45.85547 8.3e-4,25.33341 -20.52401,45.85825 -45.85742,45.85742 -25.33267,-2.4e-4 -45.8563,-20.52476 -45.85547,-45.85742 2.4e-4,-25.33191 20.52356,-45.85523 45.85547,-45.85547 z"
         id="path9" /></g><path
       id="path5"
       style="display:none;opacity:1;fill:#286ef0;fill-opacity:1;stroke:none;stroke-width:0.972544;stroke-opacity:1"
       d="M 257.78122,51.452545 C 145.97359,51.452203 55.336049,142.08883 55.335419,253.89645 55.335075,365.70477 145.97291,456.34449 257.78122,456.34416 369.58885,456.34351 460.22547,365.70408 460.22513,253.89645 460.22449,142.08952 369.58816,51.453177 257.78122,51.452545 Z m 0,24.41481 c 98.32301,5.55e-4 178.02854,79.706095 178.0291,178.029095 3e-4,98.32361 -79.70549,178.03233 -178.0291,178.0329 C 159.45701,431.92964 79.749926,352.22068 79.750228,253.89645 79.750783,155.57284 159.45761,75.867054 257.78122,75.867355 Z" /><path
       id="path14-8"
       style="display:none;fill:#286ef0;stroke:none;stroke-width:0.915406"
       d="m 245.35542,113.21322 c -15.22397,-0.26787 -26.73047,4.98827 -26.73047,4.98829 0,0 37.96805,8.48341 3.52734,38.76562 -20.69248,18.19398 -18.84765,31.33008 -18.84765,31.33008 0,0 -33.72538,-7.71515 -9.49219,-37.08008 -7.69526,2.04728 -51.85292,28.52269 -45.0625,94.79492 0.13056,1.27421 0.29342,2.55357 0.48828,3.83789 h 62.55664 a 46.385204,46.385204 0 0 1 0.002,-0.01 h 6.27148 a 40.175303,40.175303 0 0 0 -0.46289,6.08789 40.175303,40.175303 0 0 0 40.17383,40.17578 40.175303,40.175303 0 0 0 40.17578,-40.17578 40.175303,40.175303 0 0 0 -0.46289,-6.08789 h 6.27148 a 46.385204,46.385204 0 0 1 0.002,0.01 h 62.72071 c 0.30072,-1.91844 0.52334,-3.81958 0.66211,-5.70117 4.73468,-64.19811 -37.62559,-89.09974 -43.41211,-92.36328 0,0 9.70012,31.2824 -28.39453,32.21484 0,0 15.43164,-36.83381 -20.25196,-62.00976 -10.12641,-6.46881 -20.6,-8.61662 -29.73437,-8.77735 z" /><g
       id="g19"
       style="display:none;fill:#286ef0;fill-opacity:1;stroke:none"><path
         id="rect16"
         style="opacity:1;fill:#286ef0;fill-opacity:1;stroke:none;stroke-width:0.316682"
         d="M 257.17691,8.0500658 281.08613,76.964875 257.77967,100.27134 234.4732,76.964865 Z" /><path
         id="path17"
         style="opacity:1;fill:#286ef0;fill-opacity:1;stroke:none;stroke-width:0.316682"
         d="m 257.17691,499.44563 23.90922,-68.91481 -23.30646,-23.30646 -23.30647,23.30647 z" /><path
         id="path18"
         style="opacity:1;fill:#286ef0;fill-opacity:1;stroke:none;stroke-width:0.316682"
         d="m 503.52433,253.29499 -68.91481,23.90922 -23.30646,-23.30646 23.30647,-23.30647 z" /><path
         id="path19"
         style="opacity:1;fill:#286ef0;fill-opacity:1;stroke:none;stroke-width:0.316682"
         d="m 11.962562,253.29499 68.91481,23.90922 23.306458,-23.30646 -23.306468,-23.30647 z" /></g><g
       id="g23"
       style="display:none;fill:#286ef0;fill-opacity:1"><path
         id="path20"
         style="fill:#286ef0;fill-opacity:1;stroke:none;stroke-width:0.316682"
         d="m 257.17691,384.91252 23.90922,68.91481 -23.30646,23.30646 -23.30647,-23.30647 z" /><path
         id="path21"
         style="fill:#286ef0;fill-opacity:1;stroke:none;stroke-width:0.316682"
         d="M 257.17691,122.28849 281.08613,53.373686 257.77967,30.067226 234.4732,53.373696 Z" /><path
         id="path22"
         style="fill:#286ef0;fill-opacity:1;stroke:none;stroke-width:0.316682"
         d="m 126.66188,253.29499 -68.914813,23.90922 -23.30646,-23.30646 23.30647,-23.30647 z" /><path
         id="path23"
         style="fill:#286ef0;fill-opacity:1;stroke:none;stroke-width:0.316682"
         d="m 390.09391,253.29499 68.91481,23.90922 23.30646,-23.30646 -23.30647,-23.30647 z" /></g></g><g
     id="layer4"><rect
       style="fill:#f2f2f2;stroke:none;stroke-width:2;stroke-linejoin:round;stroke-miterlimit:2;stroke-dasharray:none;paint-order:markers stroke fill"
       id="rect52"
       width="500"
       height="500"
       x="0"
       y="0"
       ry="250" /></g><g
     id="layer1"
     style="display:inline"
     transform="matrix(1.0867972,0,0,1.0867972,-21.699302,-45.132243)"><path
       d="m 289.17323,391.79358 c -7.98057,8.01861 -15.33496,14.92133 -21.51823,20.35478 18.21525,1.01399 34.47726,3.56059 46.96923,7.11176 7.66325,2.17848 13.90653,4.74697 18.24912,7.46406 -4.34259,2.71709 -10.58585,5.28829 -18.24912,7.46678 -16.40946,4.66481 -39.32233,7.59517 -64.6257,7.59515 -25.30339,0 -48.21623,-2.93034 -64.62571,-7.59515 -7.66327,-2.17849 -13.90894,-4.74969 -18.25185,-7.46678 4.34289,-2.71709 10.58858,-5.28558 18.25185,-7.46406 12.14221,-3.45173 27.84506,-5.95568 45.44255,-7.02436 -6.20648,-5.39075 -13.57452,-12.24367 -21.55647,-20.22915 -9.3157,1.29411 -17.77916,3.02127 -25.08775,5.09893 -8.48825,2.41301 -15.4195,5.28023 -20.39576,8.62478 -4.17332,2.80491 -7.13156,6.09212 -7.97751,9.83191 l -28.01003,8.59472 a 2.068392,2.3987095 0 0 0 -0.0273,4.6292 l 28.02641,9.05902 c 0.83183,3.75845 3.7978,7.0536 7.98843,9.87014 4.97626,3.34455 11.90751,6.2145 20.39576,8.6275 12.6285,3.58997 28.70367,6.13861 46.66606,7.20734 l 16.47119,13.58715 a 3.0736637,0.7068305 0 0 0 5.93193,-0.008 l 15.60816,-13.56258 c 18.08744,-1.05785 34.27947,-3.61323 46.98014,-7.22373 8.48827,-2.413 15.41952,-5.28295 20.39576,-8.6275 4.19077,-2.81664 7.154,-6.11152 7.9857,-9.87014 v -0.003 l 28.02369,-9.05601 a 2.068392,2.3987095 0 0 0 -0.0246,-4.63193 l -28.0073,-8.59472 c -0.845,-3.74105 -3.80307,-7.02352 -7.97751,-9.82918 -4.97624,-3.34455 -11.90749,-6.21177 -20.39576,-8.62478 -7.71614,-2.1934 -16.72029,-3.99699 -26.6554,-5.31196 z"
       style="baseline-shift:baseline;display:inline;overflow:visible;opacity:1;vector-effect:none;fill:#005ce9;stroke-width:1.39832;enable-background:accumulate;stop-color:#000000;stop-opacity:1"
       id="path52" /><path
       d="m 188.4729,246.29767 c -13.25657,-0.12921 -66.92528,0.13661 -66.92528,0.13661 -4.05593,0 -6.6581,3.21908 -5.56868,7.1254 22.11666,79.30361 124.90026,171.98635 133.30161,171.96288 8.3923,-0.0235 112.23904,-95.53412 134.7163,-171.98473 1.1439,-3.89062 -1.42536,-7.10355 -5.48128,-7.10355 0,0 -53.80356,-0.2659 -67.07822,-0.13661 -1.62068,0.0158 -2.92563,1.39496 -3.00693,3.01512 -1.54144,30.72362 -27.1317,55.99374 -58.47529,55.99274 -31.34265,-2.8e-4 -56.9339,-25.27004 -58.4753,-55.99274 -0.0814,-1.62016 -1.38624,-2.99932 -3.00693,-3.01512 z"
       style="display:inline;opacity:1;fill:#05183c;stroke-width:1.26406"
       id="path51" /><path
       d="m 234.31874,65.480604 c -9.70464,-0.169168 -18.21287,1.424312 -24.25752,3.042443 -5.33843,1.429094 -5.04392,4.177778 -0.09,6.61468 11.31491,5.566082 25.29707,18.71743 -4.94054,45.057473 -18.15454,15.81448 -22.5648,28.57402 -23.56654,34.88418 -0.37243,2.34598 -2.10399,3.83839 -4.33971,3.02057 -8.40413,-3.07428 -25.92527,-12.23509 -15.92223,-32.99972 3.48369,-7.23155 1.84586,-9.80109 -4.70293,-5.17813 -19.29484,13.62066 -50.70653,47.91917 -44.11797,111.62496 0.065,0.62884 0.13801,1.25909 0.21576,1.88991 0.19833,1.61015 1.71774,2.90861 3.34011,2.90861 h 73.08387 c 1.62239,0 3.10477,-1.30534 3.40022,-2.90041 5.07098,-27.37833 29.20359,-47.50129 57.5795,-47.50179 28.37684,-6.9e-4 52.51108,20.12257 57.58223,47.50179 0.29544,1.59506 1.77782,2.90041 3.4002,2.90041 h 73.29144 c 1.62237,0 3.14658,-1.29891 3.34831,-2.90861 0.17738,-1.41523 0.3192,-2.82096 0.42333,-4.21952 5.07203,-68.13461 -32.67401,-100.87391 -48.67616,-111.7151 -3.2902,-2.22906 -5.20001,-0.66444 -4.8668,3.29095 0.90455,10.73766 -1.72983,30.19133 -31.86359,32.91507 -2.8799,0.26031 -4.35818,-1.89052 -3.58319,-4.67562 3.54511,-12.74037 8.89367,-47.34181 -27.20708,-72.575907 C 259.0678,68.367596 245.84832,65.681598 234.31886,65.480604 Z"
       style="display:inline;opacity:1;fill:#005ce9;stroke-width:1.17351"
       id="path50" /><path
       d="m 276.0136,218.5471 c -5.43358,0.2925 -9.46305,3.79341 -7.9065,9.60249 22.15764,58.24573 -58.09758,58.72182 -36.36442,0 2.83196,-10.56899 -15.55737,-14.7179 -24.07999,0.0436 -2.80342,5.92103 -4.41881,12.89724 -4.4189,20.92832 -8.4e-4,25.82294 20.93326,46.75595 46.75621,46.7562 25.8237,8.5e-4 46.75704,-20.93249 46.7562,-46.7562 -7e-5,-8.03108 -1.61303,-15.00732 -4.41616,-20.92832 -4.05434,-7.02229 -10.89287,-9.93871 -16.32644,-9.64619 z"
       style="display:inline;opacity:1;fill:#05183c;stroke-width:1.01423"
       id="path46" /></g></svg>
